<svg xmlns="http://www.w3.org/2000/svg" height="512" viewBox="-118 0 512 512" width="512"><g><path d="m60.558594 10.449219h154.644531v44.929687h-154.644531zm0 0" fill="#efeeee" data-original="#EFEEEE"></path><path d="m201.632812 55.378906v90.90625c0 51.898438 63.695313 77.324219 63.695313 179.722656v175.542969h-254.878906s0-98.21875 0-175.542969c0-102.398437 63.695312-127.824218 63.695312-179.722656 0-32.738281 0-90.90625 0-90.90625zm0 0" fill="#fff" data-original="#FFF"></path><path d="m114.371094 65.828125c-5.769532 0-10.492188-4.675781-10.492188-10.449219 0-5.769531 4.632813-10.445312 10.40625-10.445312h.085938c5.769531 0 10.449218 4.675781 10.449218 10.445312 0 5.773438-4.679687 10.449219-10.449218 10.449219zm0 0" data-original="#000000" class="active-path" style="fill:#FFFFFF" data-old_color="#ffffff"></path><path d="m234.285156 199.054688c-12.40625-19.152344-22.203125-34.277344-22.203125-52.769532v-80.457031h3.125c5.769531 0 10.445313-4.675781 10.445313-10.449219v-44.929687c0-5.769531-4.675782-10.449219-10.445313-10.449219h-154.648437c-5.769532 0-10.449219 4.679688-10.449219 10.449219v44.929687c0 5.773438 4.679687 10.449219 10.449219 10.449219h3.136718v80.457031c0 18.492188-9.800781 33.617188-22.203124 52.769532-18.488282 28.535156-41.492188 64.046874-41.492188 126.953124v175.542969c0 5.769531 4.679688 10.449219 10.449219 10.449219h254.878906c5.773437 0 10.449219-4.679688 10.449219-10.449219v-175.542969c0-62.90625-23.007813-98.417968-41.492188-126.953124zm20.59375 292.046874h-233.980468v-165.09375c0-56.726562 20.257812-88 38.132812-115.589843 13.144531-20.292969 25.5625-39.464844 25.5625-64.132813v-80.742187c4.613281-1.085938 8.054688-5.21875 8.054688-10.164063 0-5.769531-4.675782-10.449218-10.449219-10.449218h-11.191407v-24.03125h133.75v24.03125h-58.527343c-5.773438 0-10.449219 4.679687-10.449219 10.449218 0 5.773438 4.675781 10.449219 10.449219 10.449219h44.953125v80.457031c0 24.671875 12.417968 43.839844 25.5625 64.132813 17.875 27.589843 38.132812 58.863281 38.132812 115.589843zm0 0" data-original="#000000" class="active-path" style="fill:#FFFFFF" data-old_color="#ffffff"></path><path d="m68.628906 267.371094c-1.136718 0-2.289062-.1875-3.421875-.582032-5.453125-1.890624-8.339843-7.839843-6.453125-13.292968 1.699219-4.894532 3.699219-9.828125 5.945313-14.664063 5.765625-12.390625 12.484375-22.757812 18.410156-31.910156 9.585937-14.796875 17.15625-26.484375 17.15625-40.414063v-50.175781c0-5.773437 4.675781-10.449219 10.449219-10.449219 5.769531 0 10.449218 4.675782 10.449218 10.449219v50.175781c0 20.109376-9.964843 35.488282-20.515624 51.777344-5.828126 8.992188-11.851563 18.292969-17 29.359375-1.976563 4.257813-3.664063 8.40625-5.148438 12.695313-1.496094 4.320312-5.542969 7.03125-9.871094 7.03125zm0 0" data-original="#000000" class="active-path" style="fill:#FFFFFF" data-old_color="#ffffff"></path><path d="m105.488281 420.75c-5.769531 0-10.449219-4.675781-10.449219-10.449219v-41.375l-13.507812 13.394531c-4.070312 4.039063-10.640625 4.039063-14.710938 0l-13.507812-13.394531v41.375c0 5.773438-4.679688 10.449219-10.449219 10.449219-5.773437 0-10.449219-4.675781-10.449219-10.449219v-66.449219c0-4.21875 2.535157-8.023437 6.429688-9.644531 3.890625-1.621093 8.378906-.746093 11.375 2.226563l23.957031 23.75 23.957031-23.75c2.996094-2.972656 7.484376-3.847656 11.375-2.226563 3.894532 1.625 6.429688 5.425781 6.429688 9.644531v66.449219c0 5.773438-4.675781 10.449219-10.449219 10.449219zm0 0" data-original="#000000" class="active-path" style="fill:#FFFFFF" data-old_color="#ffffff"></path><path d="m131.613281 420.75c-5.773437 0-10.449219-4.675781-10.449219-10.449219v-66.449219c0-5.769531 4.675782-10.449218 10.449219-10.449218 5.769531 0 10.449219 4.679687 10.449219 10.449218v66.449219c0 5.773438-4.679688 10.449219-10.449219 10.449219zm0 0" data-original="#000000" class="active-path" style="fill:#FFFFFF" data-old_color="#ffffff"></path><path d="m174.996094 421.097656h-17.304688c-5.769531 0-10.449218-4.675781-10.449218-10.449218v-66.449219c0-5.769531 4.679687-10.449219 10.449218-10.449219 5.769532 0 10.449219 4.679688 10.449219 10.449219v56h6.855469c5.769531 0 10.449218 4.679687 10.449218 10.449219 0 5.773437-4.679687 10.449218-10.449218 10.449218zm0 0" data-original="#000000" class="active-path" style="fill:#FFFFFF" data-old_color="#ffffff"></path><path d="m240.6875 398.390625-24.273438-20.589844 24.535157-22.269531c4.273437-3.878906 4.59375-10.484375.714843-14.757812-3.878906-4.273438-10.488281-4.59375-14.761718-.714844l-15.875 14.410156v-10.617188c0-5.769531-4.679688-10.449218-10.449219-10.449218-5.773437 0-10.449219 4.679687-10.449219 10.449218v66.449219c0 5.773438 4.675782 10.449219 10.449219 10.449219 5.769531 0 10.449219-4.675781 10.449219-10.449219v-9.667969l16.140625 13.695313c1.960937 1.667969 4.363281 2.480469 6.753906 2.480469 2.960937 0 5.90625-1.253906 7.972656-3.6875 3.730469-4.402344 3.191407-10.996094-1.207031-14.730469zm0 0" data-original="#000000" class="active-path" style="fill:#FFFFFF" data-old_color="#ffffff"></path><path d="m61.644531 298.1875c-5.773437 0-10.492187-4.679688-10.492187-10.449219 0-5.773437 4.632812-10.449219 10.402344-10.449219h.089843c5.769531 0 10.445313 4.675782 10.445313 10.449219 0 5.769531-4.675782 10.449219-10.445313 10.449219zm0 0" data-original="#000000" class="active-path" style="fill:#FFFFFF" data-old_color="#ffffff"></path></g> </svg>