<?xml version="1.0"?>
<svg xmlns="http://www.w3.org/2000/svg" height="512px" viewBox="0 -16 414.00334 414" width="512px"><path d="m406.398438 147.203125-35.5-7.800781c-26.179688-5.714844-53.234376-6.1875-79.597657-1.402344-2.300781.402344-4.199219.800781-7.199219 1.101562v-58.699218c0-45.101563-62.402343-80.402344-142.101562-80.402344-78.101562 0-139.601562 33.800781-142 77.800781h.101562v207.902344c0 49.597656 40.097657 90.097656 89.796876 90.097656h168.902343c12.140625-.046875 24.25-1.152343 36.199219-3.300781 23.714844-4.304688 48.042969-3.894531 71.601562 1.203125l35.597657 7.796875c.6875.167969 1.394531.234375 2.101562.203125 2.226563.003906 4.386719-.773437 6.097657-2.203125 2.335937-1.90625 3.664062-4.785156 3.601562-7.796875v-214.703125c.121094-4.65625-3.058594-8.757812-7.601562-9.796875zm-147.699219-6.300781h-21.898438c10.097657-4.582032 19.304688-10.914063 27.199219-18.699219v18.699219zm-205.398438-101.402344c23.5-12.597656 55.097657-19.5 88.800781-19.5 33.699219 0 65.199219 6.902344 88.796876 19.5 21.601562 11.5 33.402343 26 33.402343 41s-11.902343 29.5-33.402343 41c-23.597657 12.601562-55.097657 19.5-88.796876 19.5-33.703124 0-65.203124-6.898438-88.800781-19.5-21.601562-11.5-33.402343-26.097656-33.402343-41 0-14.898438 11.800781-29.5 33.402343-41zm340.800781 319.800781-23.300781-5.097656c-26.121093-5.679687-53.109375-6.121094-79.402343-1.300781-10.75 1.996094-21.664063 3.003906-32.597657 3h-168.902343c-38.597657 0-69.796876-31.5-69.796876-70.101563v-163.597656c24 23.398437 69.398438 38.699219 122 38.699219h116.597657c12.136719-.015625 24.25-1.085938 36.199219-3.199219 23.683593-4.320313 47.992187-3.878906 71.5 1.296875l27.601562 6.101562zm0 0" fill="#ffffff"/><path d="m142.101562 113.800781c30.699219 0 53.898438-14.300781 53.898438-33.300781s-23.199219-33.296875-53.898438-33.296875c-30.703124 0-53.902343 14.296875-53.902343 33.296875s23.101562 33.300781 53.902343 33.300781zm0-46.597656c21 0 33.898438 8.597656 33.898438 13.296875 0 4.703125-12.898438 13.300781-33.898438 13.300781s-33.902343-8.597656-33.902343-13.300781c0-4.699219 12.800781-13.296875 33.902343-13.296875zm0 0" fill="#ffffff"/></svg>
